<svg width="36" height="36" viewBox="0 0 36 36" fill="none" xmlns="http://www.w3.org/2000/svg">
<rect width="36" height="36" rx="6" fill="url(#paint0_linear_1134_1054)"/>
<path d="M12.5813 15.2905C14.0715 15.2905 14.8165 15.2905 15.2789 14.8272C15.7422 14.3648 15.7422 13.6198 15.7422 12.1296C15.7422 10.6395 15.7422 9.89444 15.2789 9.43205C14.8165 8.96875 14.0715 8.96875 12.5813 8.96875C11.0912 8.96875 10.3461 8.96875 9.88373 9.43205C9.42043 9.89444 9.42043 10.6395 9.42043 12.1296C9.42043 13.6198 9.42043 14.3648 9.88373 14.8272C10.3461 15.2905 11.0912 15.2905 12.5813 15.2905ZM12.5813 15.2905V19.8061M12.5813 19.8061C11.9618 19.8061 11.4615 20.3046 10.4653 21.3026C9.46739 22.2996 8.96887 22.799 8.96887 23.4186C8.96887 24.0381 9.46739 24.5384 10.4653 25.5345C11.4624 26.5325 11.9618 27.031 12.5813 27.031C13.2009 27.031 13.7012 26.5325 14.6973 25.5345C15.6953 24.5375 16.1938 24.0381 16.1938 23.4186M12.5813 19.8061C13.2009 19.8061 13.7003 20.3046 14.6973 21.3026C15.6953 22.2987 16.1938 22.799 16.1938 23.4186M16.1938 23.4186H20.7093M20.7093 23.4186C20.7093 21.9284 20.7093 21.1833 21.1726 20.721C21.635 20.2577 22.3801 20.2577 23.8702 20.2577C25.3604 20.2577 26.1054 20.2577 26.5678 20.721C27.0311 21.1833 27.0311 21.9284 27.0311 23.4186C27.0311 24.9087 27.0311 25.6538 26.5678 26.1162C26.1054 26.5794 25.3604 26.5794 23.8702 26.5794C22.3801 26.5794 21.635 26.5794 21.1726 26.1162C20.7093 25.6538 20.7093 24.9087 20.7093 23.4186Z" stroke="url(#paint1_linear_1134_1054)" stroke-width="1.35467" stroke-linecap="round" stroke-linejoin="round"/>
<defs>
<linearGradient id="paint0_linear_1134_1054" x1="-2.5" y1="-2.5" x2="36" y2="36" gradientUnits="userSpaceOnUse">
<stop stop-color="#83B9FB"/>
<stop offset="0.60898" stop-color="#3B82F6"/>
</linearGradient>
<linearGradient id="paint1_linear_1134_1054" x1="8.96887" y1="17.9999" x2="27.0311" y2="17.9999" gradientUnits="userSpaceOnUse">
<stop stop-color="#EFF6FF"/>
<stop offset="1" stop-color="#BFDBFE"/>
</linearGradient>
</defs>
</svg>
