<svg width="32" height="32" viewBox="0 0 32 32" fill="none" xmlns="http://www.w3.org/2000/svg">
<rect width="32" height="32" rx="6" fill="url(#paint0_linear_8_1964)"/>
<g clip-path="url(#clip0_8_1964)">
<path d="M10.9 14.8667C12.2222 17.5111 14.4889 19.6833 17.1333 21.1L19.2111 19.0222C19.4944 18.7389 19.8722 18.6444 20.1556 18.8333C21.1944 19.2111 22.3278 19.4 23.5556 19.4C24.1222 19.4 24.5 19.7778 24.5 20.3444V23.5556C24.5 24.1222 24.1222 24.5 23.5556 24.5C14.6778 24.5 7.5 17.3222 7.5 8.44444C7.5 7.87778 7.97222 7.5 8.44444 7.5H11.75C12.3167 7.5 12.6944 7.87778 12.6944 8.44444C12.6944 9.57778 12.8833 10.7111 13.2611 11.8444C13.3556 12.1278 13.2611 12.5056 13.0722 12.7889L10.9 14.8667ZM17.8889 7.5C17.3222 7.5 16.9444 7.87778 16.9444 8.44444C16.9444 9.01111 17.3222 9.38889 17.8889 9.38889C18.4556 9.38889 18.8333 9.01111 18.8333 8.44444C18.8333 7.87778 18.4556 7.5 17.8889 7.5ZM20.7222 7.5C20.1556 7.5 19.7778 7.87778 19.7778 8.44444C19.7778 9.01111 20.1556 9.38889 20.7222 9.38889C21.2889 9.38889 21.6667 9.01111 21.6667 8.44444C21.6667 7.87778 21.2889 7.5 20.7222 7.5ZM23.5556 7.5C22.9889 7.5 22.6111 7.87778 22.6111 8.44444C22.6111 9.01111 22.9889 9.38889 23.5556 9.38889C24.1222 9.38889 24.5 9.01111 24.5 8.44444C24.5 7.87778 24.1222 7.5 23.5556 7.5ZM17.8889 10.3333C17.3222 10.3333 16.9444 10.7111 16.9444 11.2778C16.9444 11.8444 17.3222 12.2222 17.8889 12.2222C18.4556 12.2222 18.8333 11.8444 18.8333 11.2778C18.8333 10.7111 18.4556 10.3333 17.8889 10.3333ZM20.7222 10.3333C20.1556 10.3333 19.7778 10.7111 19.7778 11.2778C19.7778 11.8444 20.1556 12.2222 20.7222 12.2222C21.2889 12.2222 21.6667 11.8444 21.6667 11.2778C21.6667 10.7111 21.2889 10.3333 20.7222 10.3333ZM23.5556 10.3333C22.9889 10.3333 22.6111 10.7111 22.6111 11.2778C22.6111 11.8444 22.9889 12.2222 23.5556 12.2222C24.1222 12.2222 24.5 11.8444 24.5 11.2778C24.5 10.7111 24.1222 10.3333 23.5556 10.3333ZM17.8889 13.1667C17.3222 13.1667 16.9444 13.5444 16.9444 14.1111C16.9444 14.6778 17.3222 15.0556 17.8889 15.0556C18.4556 15.0556 18.8333 14.6778 18.8333 14.1111C18.8333 13.5444 18.4556 13.1667 17.8889 13.1667ZM20.7222 13.1667C20.1556 13.1667 19.7778 13.5444 19.7778 14.1111C19.7778 14.6778 20.1556 15.0556 20.7222 15.0556C21.2889 15.0556 21.6667 14.6778 21.6667 14.1111C21.6667 13.5444 21.2889 13.1667 20.7222 13.1667ZM23.5556 13.1667C22.9889 13.1667 22.6111 13.5444 22.6111 14.1111C22.6111 14.6778 22.9889 15.0556 23.5556 15.0556C24.1222 15.0556 24.5 14.6778 24.5 14.1111C24.5 13.5444 24.1222 13.1667 23.5556 13.1667Z" fill="url(#paint1_linear_8_1964)"/>
</g>
<defs>
<linearGradient id="paint0_linear_8_1964" x1="-2.22222" y1="-2.22222" x2="32" y2="32" gradientUnits="userSpaceOnUse">
<stop stop-color="#83B9FB"/>
<stop offset="0.60898" stop-color="#3B82F6"/>
</linearGradient>
<linearGradient id="paint1_linear_8_1964" x1="7.5" y1="16" x2="24.5" y2="16" gradientUnits="userSpaceOnUse">
<stop stop-color="#EFF6FF"/>
<stop offset="1" stop-color="#BFDBFE"/>
</linearGradient>
<clipPath id="clip0_8_1964">
<rect width="17" height="17" fill="white" transform="translate(7.5 7.5)"/>
</clipPath>
</defs>
</svg>
