<svg width="32" height="32" viewBox="0 0 32 32" fill="none" xmlns="http://www.w3.org/2000/svg">
<rect width="32" height="32" rx="6" fill="url(#paint0_linear_1134_1047)"/>
<g clip-path="url(#clip0_1134_1047)">
<path fill-rule="evenodd" clip-rule="evenodd" d="M9.39535 9.60156C8.79321 9.60156 8.21574 9.84076 7.78997 10.2665C7.3642 10.6923 7.125 11.2698 7.125 11.8719V20.1277C7.125 20.7299 7.3642 21.3073 7.78997 21.7331C8.21574 22.1589 8.79321 22.3981 9.39535 22.3981H22.6047C23.2068 22.3981 23.7843 22.1589 24.21 21.7331C24.6358 21.3073 24.875 20.7299 24.875 20.1277V11.8719C24.875 11.2698 24.6358 10.6923 24.21 10.2665C23.7843 9.84076 23.2068 9.60156 22.6047 9.60156H9.39535ZM12.2271 13.0162C12.0925 12.9283 11.929 12.8963 11.7713 12.9268C11.6135 12.9573 11.4737 13.0479 11.3815 13.1795C11.2893 13.3112 11.2519 13.4735 11.2772 13.6322C11.3025 13.7909 11.3885 13.9335 11.5171 14.03L15.645 16.9195C15.7491 16.9923 15.873 17.0314 16 17.0314C16.127 17.0314 16.2509 16.9923 16.355 16.9195L20.4829 14.03C20.5524 13.9846 20.6121 13.9257 20.6584 13.8568C20.7047 13.7879 20.7367 13.7104 20.7525 13.6289C20.7682 13.5474 20.7674 13.4635 20.7501 13.3823C20.7328 13.3011 20.6993 13.2242 20.6517 13.1562C20.6041 13.0882 20.5433 13.0305 20.4729 12.9865C20.4025 12.9425 20.324 12.913 20.242 12.9C20.16 12.8869 20.0762 12.8905 19.9956 12.9104C19.9151 12.9304 19.8393 12.9663 19.7729 13.0162L16 15.6572L12.2271 13.0162Z" fill="url(#paint1_linear_1134_1047)"/>
</g>
<defs>
<linearGradient id="paint0_linear_1134_1047" x1="-2.22222" y1="-2.22222" x2="32" y2="32" gradientUnits="userSpaceOnUse">
<stop stop-color="#83B9FB"/>
<stop offset="0.60898" stop-color="#3B82F6"/>
</linearGradient>
<linearGradient id="paint1_linear_1134_1047" x1="7.125" y1="15.9998" x2="24.875" y2="15.9998" gradientUnits="userSpaceOnUse">
<stop stop-color="#EFF6FF"/>
<stop offset="1" stop-color="#BFDBFE"/>
</linearGradient>
<clipPath id="clip0_1134_1047">
<rect width="17.75" height="12.7965" fill="white" transform="translate(7.125 9.60156)"/>
</clipPath>
</defs>
</svg>
