<svg width="36" height="36" viewBox="0 0 36 36" fill="none" xmlns="http://www.w3.org/2000/svg">
<rect width="36" height="36" rx="6" fill="url(#paint0_linear_1120_1556)"/>
<path d="M16.4948 25.526C16.0956 25.526 15.7128 25.3674 15.4305 25.0851C15.1482 24.8029 14.9896 24.42 14.9896 24.0208M19.5052 10.4741C19.9044 10.4741 20.2872 10.6327 20.5695 10.915C20.8518 11.1973 21.0104 11.5801 21.0104 11.9793M21.0104 25.526H19.5052M10.4741 16.4949V14.9897M10.4741 11.9793C10.4741 11.5801 10.6326 11.1973 10.9149 10.915C11.1972 10.6327 11.58 10.4741 11.9792 10.4741M24.0208 14.9897C24.42 14.9897 24.8028 15.1483 25.0851 15.4305C25.3674 15.7128 25.5259 16.0957 25.5259 16.4949M25.5259 19.5052V21.0104M25.5259 24.0208C25.5259 24.42 25.3674 24.8029 25.0851 25.0851C24.8028 25.3674 24.42 25.526 24.0208 25.526M11.9792 21.0104C11.58 21.0104 11.1972 20.8519 10.9149 20.5696C10.6326 20.2873 10.4741 19.9044 10.4741 19.5052M14.9896 10.4741H16.4948M14.9896 16.4949C14.9896 16.0957 15.1482 15.7128 15.4305 15.4305C15.7128 15.1483 16.0956 14.9897 16.4948 14.9897H20.2578C20.4574 14.9897 20.6488 15.069 20.7899 15.2101C20.9311 15.3513 21.0104 15.5427 21.0104 15.7423V19.5052C21.0104 19.9044 20.8518 20.2873 20.5695 20.5696C20.2872 20.8519 19.9044 21.0104 19.5052 21.0104H15.7422C15.5426 21.0104 15.3512 20.9311 15.2101 20.79C15.0689 20.6489 14.9896 20.4574 14.9896 20.2578V16.4949Z" stroke="url(#paint1_linear_1120_1556)" stroke-width="1.50519" stroke-linecap="round" stroke-linejoin="round"/>
<defs>
<linearGradient id="paint0_linear_1120_1556" x1="-2.5" y1="-2.5" x2="36" y2="36" gradientUnits="userSpaceOnUse">
<stop stop-color="#83B9FB"/>
<stop offset="0.60898" stop-color="#3B82F6"/>
</linearGradient>
<linearGradient id="paint1_linear_1120_1556" x1="10.4741" y1="18.0001" x2="25.5259" y2="18.0001" gradientUnits="userSpaceOnUse">
<stop stop-color="#EFF6FF"/>
<stop offset="1" stop-color="#BFDBFE"/>
</linearGradient>
</defs>
</svg>
