<svg width="32" height="32" viewBox="0 0 32 32" fill="none" xmlns="http://www.w3.org/2000/svg">
<rect width="32" height="32" rx="6" fill="url(#paint0_linear_615_2637)"/>
<g clip-path="url(#clip0_615_2637)">
<path fill-rule="evenodd" clip-rule="evenodd" d="M9.39535 9.60175C8.79321 9.60175 8.21574 9.84094 7.78997 10.2667C7.3642 10.6925 7.125 11.27 7.125 11.8721V20.1279C7.125 20.73 7.3642 21.3075 7.78997 21.7333C8.21574 22.1591 8.79321 22.3983 9.39535 22.3983H22.6047C23.2068 22.3983 23.7843 22.1591 24.21 21.7333C24.6358 21.3075 24.875 20.73 24.875 20.1279V11.8721C24.875 11.27 24.6358 10.6925 24.21 10.2667C23.7843 9.84094 23.2068 9.60175 22.6047 9.60175H9.39535ZM12.2271 13.0163C12.0925 12.9285 11.929 12.8965 11.7713 12.927C11.6135 12.9574 11.4737 13.0481 11.3815 13.1797C11.2893 13.3113 11.2519 13.4737 11.2772 13.6324C11.3025 13.7911 11.3885 13.9337 11.5171 14.0302L15.645 16.9197C15.7491 16.9925 15.873 17.0316 16 17.0316C16.127 17.0316 16.2509 16.9925 16.355 16.9197L20.4829 14.0302C20.5524 13.9848 20.6121 13.9259 20.6584 13.857C20.7047 13.7881 20.7367 13.7106 20.7525 13.6291C20.7682 13.5476 20.7674 13.4637 20.7501 13.3825C20.7328 13.3013 20.6993 13.2244 20.6517 13.1564C20.6041 13.0884 20.5433 13.0307 20.4729 12.9867C20.4025 12.9426 20.324 12.9132 20.242 12.9002C20.16 12.8871 20.0762 12.8906 19.9956 12.9106C19.9151 12.9306 19.8393 12.9665 19.7729 13.0163L16 15.6574L12.2271 13.0163Z" fill="url(#paint1_linear_615_2637)"/>
</g>
<defs>
<linearGradient id="paint0_linear_615_2637" x1="-2.22222" y1="-2.22222" x2="32" y2="32" gradientUnits="userSpaceOnUse">
<stop stop-color="#83B9FB"/>
<stop offset="0.60898" stop-color="#3B82F6"/>
</linearGradient>
<linearGradient id="paint1_linear_615_2637" x1="7.125" y1="16" x2="24.875" y2="16" gradientUnits="userSpaceOnUse">
<stop stop-color="#EFF6FF"/>
<stop offset="1" stop-color="#BFDBFE"/>
</linearGradient>
<clipPath id="clip0_615_2637">
<rect width="17.75" height="12.7965" fill="white" transform="translate(7.125 9.60175)"/>
</clipPath>
</defs>
</svg>
