<svg width="32" height="32" viewBox="0 0 32 32" fill="none" xmlns="http://www.w3.org/2000/svg">
<rect width="32" height="32" rx="6" fill="url(#paint0_linear_615_2643)"/>
<g clip-path="url(#clip0_615_2643)">
<path d="M16 7C20.9707 7 25 11.0293 25 16C25 20.9707 20.9707 25 16 25C14.4095 25.0027 12.8469 24.5818 11.473 23.7805L7.00361 25L8.22041 20.5288C7.41848 19.1544 6.99723 17.5912 7.00001 16C7.00001 11.0293 11.0293 7 16 7ZM12.9328 11.77L12.7528 11.7772C12.6364 11.7852 12.5227 11.8158 12.418 11.8672C12.3204 11.9226 12.2313 11.9917 12.1534 12.0724C12.0454 12.1741 11.9842 12.2623 11.9185 12.3478C11.5856 12.7806 11.4064 13.312 11.4091 13.858C11.4109 14.299 11.5261 14.7283 11.7061 15.1297C12.0742 15.9415 12.6799 16.801 13.4791 17.5975C13.6717 17.7892 13.8607 17.9818 14.0641 18.1609C15.0572 19.0352 16.2406 19.6657 17.5201 20.0023L18.0313 20.0806C18.1978 20.0896 18.3643 20.077 18.5317 20.0689C18.7938 20.0551 19.0496 19.9841 19.2814 19.861C19.3992 19.8001 19.5142 19.734 19.6261 19.663C19.6261 19.663 19.6642 19.6372 19.7386 19.582C19.8601 19.492 19.9348 19.4281 20.0356 19.3228C20.1112 19.2448 20.1742 19.1542 20.2246 19.051C20.2948 18.9043 20.365 18.6244 20.3938 18.3913C20.4154 18.2131 20.4091 18.1159 20.4064 18.0556C20.4028 17.9593 20.3227 17.8594 20.2354 17.8171L19.7116 17.5822C19.7116 17.5822 18.9286 17.2411 18.4498 17.0233C18.3997 17.0015 18.346 16.989 18.2914 16.9864C18.2298 16.9799 18.1676 16.9868 18.1089 17.0065C18.0502 17.0263 17.9964 17.0584 17.9512 17.1007C17.9467 17.0989 17.8864 17.1502 17.2357 17.9386C17.1984 17.9888 17.1469 18.0267 17.0879 18.0475C17.0289 18.0684 16.9651 18.0712 16.9045 18.0556C16.8458 18.04 16.7884 18.0201 16.7326 17.9962C16.621 17.9494 16.5823 17.9314 16.5058 17.899C15.9891 17.6739 15.5108 17.3693 15.0883 16.9963C14.9749 16.8973 14.8696 16.7893 14.7616 16.6849C14.4076 16.3458 14.099 15.9622 13.8436 15.5437L13.7905 15.4582C13.7529 15.4004 13.7221 15.3385 13.6987 15.2737C13.6645 15.1414 13.7536 15.0352 13.7536 15.0352C13.7536 15.0352 13.9723 14.7958 14.074 14.6662C14.173 14.5402 14.2567 14.4178 14.3107 14.3305C14.4169 14.1595 14.4502 13.984 14.3944 13.8481C14.1424 13.2325 13.882 12.6202 13.6132 12.0112C13.5601 11.8906 13.4026 11.8042 13.2595 11.7871C13.2109 11.7811 13.1623 11.7763 13.1137 11.7727C12.9929 11.7658 12.8717 11.767 12.751 11.7763L12.9328 11.77Z" fill="url(#paint1_linear_615_2643)"/>
</g>
<defs>
<linearGradient id="paint0_linear_615_2643" x1="-2.22222" y1="-2.22222" x2="32" y2="32" gradientUnits="userSpaceOnUse">
<stop stop-color="#83B9FB"/>
<stop offset="0.60898" stop-color="#3B82F6"/>
</linearGradient>
<linearGradient id="paint1_linear_615_2643" x1="7" y1="16" x2="25" y2="16" gradientUnits="userSpaceOnUse">
<stop stop-color="#EFF6FF"/>
<stop offset="1" stop-color="#BFDBFE"/>
</linearGradient>
<clipPath id="clip0_615_2643">
<rect width="18" height="18" fill="white" transform="translate(7 7)"/>
</clipPath>
</defs>
</svg>
