<svg width="240" height="58" viewBox="0 0 240 58" fill="none" xmlns="http://www.w3.org/2000/svg">
<path d="M229.501 34.3373V16.6215H223.349V12.8043H240V16.6215H233.848V34.3373H229.501Z" fill="#060606"/>
<path d="M215.356 23.7666L221.722 34.3373H216.825L213.336 28.1711C212.876 27.3554 212.448 26.4093 212.356 26.1483H212.264C212.172 26.4093 211.775 27.388 211.285 28.1711L207.612 34.3373H203.112L209.173 23.8645L202.99 12.8043H208.071L211.377 19.3947C211.713 20.0472 212.203 21.0586 212.295 21.3197H212.387C212.479 21.0586 212.968 20.0472 213.305 19.3947L216.947 12.8043H221.508L215.356 23.7666Z" fill="#060606"/>
<path d="M200.242 16.6215H191.212V21.5807H199.048V25.2021H191.212V30.5201H200.242V34.3373H186.866V12.8043H200.242V16.6215Z" fill="#060606"/>
<path d="M181.351 12.8043V34.3373H177.219L170.699 23.9623C169.904 22.6573 168.863 20.7976 168.373 19.9494L168.189 20.0472C168.312 20.5366 168.343 22.2006 168.343 23.9297L168.373 34.3373H164.18V12.8043H168.036L174.862 23.7013C175.903 25.3652 176.821 27.127 177.158 27.7796L177.342 27.6817C177.25 27.0944 177.158 25.4631 177.158 23.6687L177.127 12.8043H181.351Z" fill="#060606"/>
<path d="M149.861 12.5759C155.646 12.5759 159.686 16.8173 159.686 23.5382C159.686 30.3243 155.646 34.5657 149.861 34.5657C144.076 34.5657 140.005 30.3243 140.005 23.5382C140.005 16.8173 144.076 12.5759 149.861 12.5759ZM149.861 30.5201C153.013 30.5201 155.279 27.9427 155.279 23.5382C155.279 19.1663 153.013 16.5889 149.861 16.5889C146.708 16.5889 144.412 19.1663 144.412 23.5382C144.412 27.9427 146.708 30.5201 149.861 30.5201Z" fill="#060606"/>
<path d="M128.452 12.8043C133.747 12.8043 136.931 15.3491 136.931 20.4388C136.931 25.5284 133.594 28.0732 129.034 28.0732H125.544V34.3373H121.198V12.8043H128.452ZM128.207 24.4191C130.962 24.4191 132.523 23.0162 132.523 20.4388C132.523 17.9918 131.023 16.4584 128.024 16.4584H125.544V24.4191H128.207Z" fill="#060606"/>
<path d="M115.674 12.8043V34.3373H111.389L111.419 22.9836C111.419 22.0048 111.511 20.6019 111.542 20.4061L111.419 20.3735C111.358 20.6345 111.021 21.8417 110.777 22.3963L105.91 34.4678H103.583L98.5942 22.2658C98.2881 21.4828 98.0432 20.5366 98.0126 20.3735L97.8596 20.4061C97.9208 20.6019 98.0126 22.0374 98.0126 22.9836L98.0432 34.3373H93.7886V12.8043H98.4105L103.339 24.2233C103.92 25.5936 104.624 27.5186 104.747 28.0079H104.869C104.961 27.5186 105.695 25.5936 106.277 24.1907L111.144 12.8043H115.674Z" fill="#060606"/>
<path d="M79.4699 12.5759C85.2549 12.5759 89.2953 16.8173 89.2953 23.5382C89.2953 30.3243 85.2549 34.5657 79.4699 34.5657C73.6848 34.5657 69.6138 30.3243 69.6138 23.5382C69.6138 16.8173 73.6848 12.5759 79.4699 12.5759ZM79.4699 30.5201C82.6226 30.5201 84.8876 27.9427 84.8876 23.5382C84.8876 19.1663 82.6226 16.5889 79.4699 16.5889C76.3171 16.5889 74.0215 19.1663 74.0215 23.5382C74.0215 27.9427 76.3171 30.5201 79.4699 30.5201Z" fill="#060606"/>
<path d="M58.7042 30.5527C55.7045 30.5527 52.9191 28.5299 52.9191 23.5708H48.542C48.542 30.3896 52.5824 34.5657 58.5817 34.5657C63.0812 34.5657 65.5606 31.7273 66.4482 30.357L63.8771 27.4859C63.0506 28.7257 61.3059 30.5527 58.7042 30.5527Z" fill="#060606"/>
<path d="M58.7042 16.7849C55.7045 16.7849 52.9191 18.8077 52.9191 23.7668H48.542C48.542 16.948 52.5824 12.7719 58.5817 12.7719C63.0812 12.7719 65.5606 15.6104 66.4482 16.9807L63.8771 19.8517C63.0506 18.6119 61.3059 16.7849 58.7042 16.7849Z" fill="#060606"/>
<path d="M41.0214 2.44255C40.4281 3.27805 20.7122 23.264 20.7122 23.264L2.44489 42.1723C1.17859 40.8244 0.654974 40.0715 0.20153 38.647C-0.251913 37.2225 0.20153 20.0592 0.20153 20.0592C0.240988 18.0676 0.358443 17.2692 2.12441 15.252C3.89037 13.2347 12.5343 4.88821 14.3026 3.07376C16.071 1.25931 17.1273 0.577829 19.1098 0.189442C21.0923 -0.198945 37.8992 0.118568 39.6205 0.189442C41.3419 0.260315 41.6147 1.60706 41.0214 2.44255Z" fill="black"/>
<path d="M15.2647 55.3115C13.687 53.8095 2.44556 42.1718 2.44556 42.1718L20.7129 23.2635C20.7129 23.2635 50.833 53.3847 51.479 54.0296C52.1249 54.6745 53.2835 56.4822 51.479 57.2344C49.6744 57.9866 22.2926 57.2254 20.0719 57.2344C17.8513 57.2434 16.8425 56.8135 15.2647 55.3115Z" fill="#3B82F6"/>
</svg>
