<svg width="36" height="36" viewBox="0 0 36 36" fill="none" xmlns="http://www.w3.org/2000/svg">
<rect width="36" height="36" rx="6" fill="url(#paint0_linear_577_2648)"/>
<g clip-path="url(#clip0_577_2648)">
<mask id="mask0_577_2648" style="mask-type:luminance" maskUnits="userSpaceOnUse" x="7" y="7" width="22" height="22">
<path d="M28.3633 7.63672H7.63666V28.3634H28.3633V7.63672Z" fill="white"/>
</mask>
<g mask="url(#mask0_577_2648)">
<path d="M14.5455 22.1023H12.3261C10.0029 22.1023 8.71616 20.8241 8.71616 18.4924V12.3262C8.71616 10.0031 9.9943 8.71631 12.3261 8.71631H16.2728C18.5959 8.71631 19.8827 9.99445 19.8827 12.3262C19.8827 12.6803 19.589 12.9739 19.2349 12.9739C18.8809 12.9739 18.5872 12.6803 18.5872 12.3262C18.5872 10.7026 17.8963 10.0117 16.2728 10.0117H12.3261C10.7025 10.0117 10.0116 10.7026 10.0116 12.3262V18.4924C10.0116 20.116 10.7025 20.8069 12.3261 20.8069H14.5455C14.8996 20.8069 15.1932 21.1005 15.1932 21.4546C15.1932 21.8087 14.8996 22.1023 14.5455 22.1023Z" fill="url(#paint1_linear_577_2648)"/>
<path d="M23.674 27.2839H19.7273C17.4042 27.2839 16.1174 26.0058 16.1174 23.674V17.5078C16.1174 15.1847 17.3956 13.8979 19.7273 13.8979H23.674C25.9971 13.8979 27.2839 15.1761 27.2839 17.5078V23.674C27.2839 26.0058 26.0058 27.2839 23.674 27.2839ZM19.7273 15.1934C18.1037 15.1934 17.4128 15.8843 17.4128 17.5078V23.674C17.4128 25.2976 18.1037 25.9885 19.7273 25.9885H23.674C25.2976 25.9885 25.9885 25.2976 25.9885 23.674V17.5078C25.9885 15.8843 25.2976 15.1934 23.674 15.1934H19.7273Z" fill="url(#paint2_linear_577_2648)"/>
<path d="M23.2939 21.2388H20.4872C20.1331 21.2388 19.8395 20.9451 19.8395 20.5911C19.8395 20.237 20.1331 19.9434 20.4872 19.9434H23.2939C23.648 19.9434 23.9416 20.237 23.9416 20.5911C23.9416 20.9451 23.648 21.2388 23.2939 21.2388Z" fill="white"/>
<path d="M21.8864 22.6471C21.5323 22.6471 21.2387 22.3534 21.2387 21.9994V19.1926C21.2387 18.8385 21.5323 18.5449 21.8864 18.5449C22.2405 18.5449 22.5341 18.8385 22.5341 19.1926V21.9994C22.5341 22.3534 22.2405 22.6471 21.8864 22.6471Z" fill="white"/>
</g>
</g>
<defs>
<linearGradient id="paint0_linear_577_2648" x1="-2.5" y1="-2.5" x2="36" y2="36" gradientUnits="userSpaceOnUse">
<stop stop-color="#83B9FB"/>
<stop offset="0.60898" stop-color="#3B82F6"/>
</linearGradient>
<linearGradient id="paint1_linear_577_2648" x1="8.71616" y1="15.4093" x2="19.8827" y2="15.4093" gradientUnits="userSpaceOnUse">
<stop stop-color="#EFF6FF"/>
<stop offset="1" stop-color="#BFDBFE"/>
</linearGradient>
<linearGradient id="paint2_linear_577_2648" x1="16.1174" y1="20.5909" x2="27.2839" y2="20.5909" gradientUnits="userSpaceOnUse">
<stop stop-color="#EFF6FF"/>
<stop offset="1" stop-color="#BFDBFE"/>
</linearGradient>
<clipPath id="clip0_577_2648">
<rect width="20.7267" height="20.7267" fill="white" transform="translate(7.63666 7.63672)"/>
</clipPath>
</defs>
</svg>
