<svg width="56" height="56" viewBox="0 0 56 56" fill="none" xmlns="http://www.w3.org/2000/svg">
<rect width="56" height="56" rx="8" fill="#1E3A8A" fill-opacity="0.03"/>
<g clip-path="url(#clip0_1087_1161)">
<path d="M29.413 37H27.25C24.118 37 21.46 35.9085 19.276 33.7255C17.092 31.5425 16 28.886 16 25.756C16 22.626 17.0915 19.9675 19.2745 17.7805C21.4575 15.5935 24.115 14.5 27.247 14.5C28.813 14.5 30.278 14.793 31.642 15.379C33.006 15.964 34.1975 16.766 35.2165 17.785C36.2355 18.804 37.0375 19.9935 37.6225 21.3535C38.2075 22.7135 38.5 24.179 38.5 25.75C38.5 28.62 37.763 31.252 36.289 33.646C34.815 36.04 32.9385 38.03 30.6595 39.616C30.5255 39.693 30.3905 39.7355 30.2545 39.7435C30.1205 39.7505 29.992 39.7205 29.869 39.6535C29.746 39.5865 29.648 39.501 29.575 39.397C29.502 39.293 29.4625 39.1615 29.4565 39.0025L29.413 37ZM31 37.525C32.775 36.025 34.219 34.269 35.332 32.257C36.445 30.245 37.001 28.076 37 25.75C37 23.025 36.056 20.719 34.168 18.832C32.28 16.945 29.974 16.001 27.25 16C24.526 15.999 22.22 16.943 20.332 18.832C18.444 20.721 17.5 23.027 17.5 25.75C17.5 28.473 18.444 30.7795 20.332 32.6695C22.22 34.5595 24.526 35.503 27.25 35.5H31V37.525ZM27.304 33.3565C27.61 33.3565 27.87 33.2485 28.084 33.0325C28.298 32.8165 28.4045 32.555 28.4035 32.248C28.4025 31.941 28.2945 31.681 28.0795 31.468C27.8645 31.255 27.603 31.148 27.295 31.147C26.987 31.146 26.727 31.2545 26.515 31.4725C26.303 31.6905 26.196 31.952 26.194 32.257C26.192 32.562 26.3 32.822 26.518 33.037C26.736 33.252 26.998 33.3585 27.304 33.3565ZM24.1885 22.303C24.3625 22.37 24.536 22.3655 24.709 22.2895C24.882 22.2135 25.0235 22.091 25.1335 21.922C25.3385 21.584 25.6295 21.314 26.0065 21.112C26.3835 20.912 26.8175 20.812 27.3085 20.812C28.0445 20.812 28.643 21.0045 29.104 21.3895C29.565 21.7745 29.795 22.2955 29.794 22.9525C29.794 23.3585 29.6955 23.7385 29.4985 24.0925C29.3015 24.4455 28.9655 24.8595 28.4905 25.3345C27.8465 25.9615 27.384 26.4995 27.103 26.9485C26.822 27.3975 26.682 27.8335 26.683 28.2565C26.683 28.4535 26.747 28.6215 26.875 28.7605C27.003 28.8995 27.158 28.9695 27.34 28.9705C27.522 28.9715 27.6745 28.9015 27.7975 28.7605C27.9205 28.6225 27.9935 28.452 28.0165 28.249C28.0655 27.939 28.233 27.5945 28.519 27.2155C28.805 26.8365 29.153 26.4425 29.563 26.0335C30.127 25.4695 30.5305 24.938 30.7735 24.439C31.0165 23.939 31.138 23.4395 31.138 22.9405C31.138 21.9115 30.783 21.084 30.073 20.458C29.363 19.832 28.4605 19.519 27.3655 19.519C26.6295 19.519 25.9515 19.6985 25.3315 20.0575C24.7115 20.4165 24.2455 20.8445 23.9335 21.3415C23.8235 21.5445 23.791 21.7385 23.836 21.9235C23.881 22.1085 23.9985 22.235 24.1885 22.303Z" fill="#3B82F6"/>
</g>
<defs>
<clipPath id="clip0_1087_1161">
<rect width="36" height="36" fill="white" transform="translate(10 10)"/>
</clipPath>
</defs>
</svg>
