<svg width="12" height="83" viewBox="0 0 12 83" fill="none" xmlns="http://www.w3.org/2000/svg">
<path d="M10.4996 76.5526C10.7815 76.2536 11.2569 76.2538 11.5387 76.5529C11.7978 76.8279 11.7977 77.2571 11.5386 77.5321L6.65505 82.713C6.56941 82.8044 6.46756 82.877 6.35538 82.9265C6.2432 82.976 6.12289 83.0015 6.00139 83.0015C5.87988 83.0015 5.75958 82.976 5.6474 82.9265C5.53521 82.877 5.43337 82.8044 5.34773 82.713L0.461659 77.5321C0.202427 77.2572 0.202409 76.8279 0.461617 76.553C0.743254 76.2543 1.21822 76.2543 1.49988 76.5529L5.27243 80.5531C5.66716 80.9717 6.3328 80.9717 6.7275 80.5531L10.4996 76.5526Z" fill="#E4E4E7"/>
<path opacity="0.6" d="M6 80.5L6 0.5" stroke="#E4E4E7" stroke-linecap="round" stroke-linejoin="round" stroke-dasharray="4 4"/>
</svg>
