<svg width="18" height="60" viewBox="0 0 18 60" fill="none" xmlns="http://www.w3.org/2000/svg">
<path d="M15.801 49.52C16.1959 49.1013 16.8618 49.1014 17.2565 49.5204L17.3539 49.6238C17.7168 50.009 17.7167 50.6103 17.3537 50.9954L9.98258 58.8154C9.85411 58.9525 9.70134 59.0613 9.53307 59.1356C9.3648 59.2098 9.18434 59.248 9.00208 59.248C8.81983 59.248 8.63937 59.2098 8.4711 59.1356C8.30282 59.0613 8.15006 58.9525 8.02159 58.8154L0.646991 50.9957C0.283691 50.6105 0.283665 50.0088 0.646931 49.6236L0.743587 49.5211C1.13828 49.1025 1.80392 49.1024 2.19866 49.521L8.27243 55.9613C8.66717 56.3798 9.3328 56.3798 9.7275 55.9612L15.801 49.52Z" fill="#E4E4E7"/>
<path opacity="0.6" d="M9 56L9 0.5" stroke="#E4E4E7" stroke-linecap="round" stroke-linejoin="round" stroke-dasharray="4 4"/>
</svg>
