<svg width="36" height="36" viewBox="0 0 36 36" fill="none" xmlns="http://www.w3.org/2000/svg">
<rect width="36" height="36" rx="6" fill="url(#paint0_linear_1087_1231)"/>
<path d="M11.4946 15.8551C9.65451 15.1194 8.73444 14.7516 8.73444 14.2939C8.73444 13.8362 9.65451 13.4692 11.4946 12.7326L14.0964 11.6921C15.9366 10.9555 16.8576 10.5876 18 10.5876C19.1424 10.5876 20.0634 10.9555 21.9036 11.6921L24.5054 12.7326C26.3455 13.4683 27.2656 13.8362 27.2656 14.2939C27.2656 14.7516 26.3455 15.1185 24.5054 15.8551L21.9036 16.8966C20.0634 17.6323 19.1424 18.0001 18 18.0001C16.8576 18.0001 15.9366 17.6323 14.0964 16.8966L11.4946 15.8551Z" stroke="url(#paint1_linear_1087_1231)" stroke-width="1.38983"/>
<path d="M12.2238 16.147L11.4946 16.4388C9.65451 17.1745 8.73444 17.5433 8.73444 18.0001C8.73444 18.4569 9.65451 18.8247 11.4946 19.5613L14.0964 20.6028C15.9366 21.3385 16.8576 21.7063 18 21.7063C19.1424 21.7063 20.0634 21.3385 21.9036 20.6028L24.5054 19.5613C26.3455 18.8256 27.2656 18.4569 27.2656 18.0001C27.2656 17.5433 26.3455 17.1754 24.5054 16.4388L23.7762 16.147" stroke="url(#paint2_linear_1087_1231)" stroke-width="1.38983"/>
<path d="M12.2238 19.853L11.4946 20.1449C9.65451 20.8806 8.73444 21.2493 8.73444 21.7061C8.73444 22.1629 9.65451 22.5308 11.4946 23.2674L14.0964 24.3088C15.9366 25.0445 16.8576 25.4124 18 25.4124C19.1424 25.4124 20.0634 25.0445 21.9036 24.3079L24.5054 23.2674C26.3455 22.5317 27.2656 22.1639 27.2656 21.7061C27.2656 21.2493 26.3455 20.8815 24.5054 20.1449L23.7762 19.853" stroke="url(#paint3_linear_1087_1231)" stroke-width="1.38983"/>
<defs>
<linearGradient id="paint0_linear_1087_1231" x1="-2.5" y1="-2.5" x2="36" y2="36" gradientUnits="userSpaceOnUse">
<stop stop-color="#83B9FB"/>
<stop offset="0.60898" stop-color="#3B82F6"/>
</linearGradient>
<linearGradient id="paint1_linear_1087_1231" x1="8.73444" y1="14.2939" x2="27.2656" y2="14.2939" gradientUnits="userSpaceOnUse">
<stop stop-color="#EFF6FF"/>
<stop offset="1" stop-color="#BFDBFE"/>
</linearGradient>
<linearGradient id="paint2_linear_1087_1231" x1="8.73444" y1="18.9266" x2="27.2656" y2="18.9266" gradientUnits="userSpaceOnUse">
<stop stop-color="#EFF6FF"/>
<stop offset="1" stop-color="#BFDBFE"/>
</linearGradient>
<linearGradient id="paint3_linear_1087_1231" x1="8.73444" y1="22.6327" x2="27.2656" y2="22.6327" gradientUnits="userSpaceOnUse">
<stop stop-color="#EFF6FF"/>
<stop offset="1" stop-color="#BFDBFE"/>
</linearGradient>
</defs>
</svg>
