<svg width="36" height="36" viewBox="0 0 36 36" fill="none" xmlns="http://www.w3.org/2000/svg">
<rect width="36" height="36" rx="6" fill="url(#paint0_linear_1306_2832)"/>
<path d="M16.5665 19.7054C16.5751 19.635 16.5687 19.5637 16.5478 19.496C16.5269 19.4282 16.4919 19.3657 16.4452 19.3124C16.3984 19.2592 16.3409 19.2164 16.2765 19.1869C16.212 19.1574 16.1421 19.1418 16.0712 19.1412H13.0076C12.9248 19.1403 12.8434 19.119 12.7707 19.0793C12.698 19.0396 12.6362 18.9826 12.5907 18.9133C12.5453 18.8441 12.5175 18.7647 12.5099 18.6822C12.5024 18.5997 12.5152 18.5166 12.5473 18.4402L16.4487 9.32525C16.4857 9.23351 16.5491 9.15482 16.6309 9.09918C16.7126 9.04353 16.8091 9.01343 16.908 9.0127H21.4196C21.7721 9.0127 22.0127 9.37218 21.8839 9.7057L19.6621 15.4095C19.6316 15.4858 19.6201 15.5683 19.6287 15.6499C19.6372 15.7316 19.6655 15.8099 19.7111 15.8781C19.7568 15.9464 19.8183 16.0025 19.8905 16.0416C19.9627 16.0807 20.0433 16.1016 20.1254 16.1025H22.9933C23.4047 16.1025 23.6394 16.5809 23.3908 16.9144L15.9314 26.946C15.8695 27.0289 15.7407 26.976 15.7517 26.8741L16.5665 19.7054Z" stroke="url(#paint1_linear_1306_2832)" stroke-width="1.49786" stroke-linecap="round" stroke-linejoin="round"/>
<defs>
<linearGradient id="paint0_linear_1306_2832" x1="-2.5" y1="-2.5" x2="36" y2="36" gradientUnits="userSpaceOnUse">
<stop stop-color="#83B9FB"/>
<stop offset="0.60898" stop-color="#3B82F6"/>
</linearGradient>
<linearGradient id="paint1_linear_1306_2832" x1="12.5078" y1="17.9998" x2="23.4927" y2="17.9998" gradientUnits="userSpaceOnUse">
<stop stop-color="#EFF6FF"/>
<stop offset="1" stop-color="#BFDBFE"/>
</linearGradient>
</defs>
</svg>
