<svg width="56" height="56" viewBox="0 0 56 56" fill="none" xmlns="http://www.w3.org/2000/svg">
<rect width="56" height="56" rx="8" fill="#1E3A8A" fill-opacity="0.03"/>
<g clip-path="url(#clip0_321_1195)">
<path d="M27.553 39.9129C27.749 39.9129 27.95 39.8689 28.156 39.7809C28.362 39.6929 28.5285 39.5854 28.6555 39.4584L40.3495 27.7629C40.7265 27.3859 41.0175 27.0009 41.2225 26.6079C41.4265 26.2129 41.5285 25.7799 41.5285 25.3089C41.5285 24.8319 41.4265 24.3689 41.2225 23.9199C41.0175 23.4699 40.7265 23.0599 40.3495 22.6899L34.7245 17.0649C34.3535 16.6879 33.972 16.4114 33.58 16.2354C33.189 16.0594 32.755 15.9714 32.278 15.9714C31.807 15.9714 31.3695 16.0594 30.9655 16.2354C30.5615 16.4114 30.181 16.6874 29.824 17.0634L28.516 18.3714L31.291 21.1539C31.589 21.4469 31.8115 21.7799 31.9585 22.1529C32.1045 22.5259 32.1775 22.9044 32.1775 23.2884C32.1775 24.0694 31.922 24.7154 31.411 25.2264C30.9 25.7374 30.2545 25.9924 29.4745 25.9914C29.0895 25.9914 28.714 25.9329 28.348 25.8159C27.982 25.6989 27.6525 25.4939 27.3595 25.2009L25.153 23.0049C24.98 22.8319 24.759 22.7454 24.49 22.7454C24.22 22.7454 23.9985 22.8319 23.8255 23.0049L18.013 28.8174C17.862 28.9694 17.7485 29.1419 17.6725 29.3349C17.5965 29.5279 17.5585 29.7229 17.5585 29.9199C17.5585 30.2739 17.672 30.5654 17.899 30.7944C18.125 31.0244 18.415 31.1394 18.769 31.1394C18.965 31.1394 19.166 31.0954 19.372 31.0074C19.578 30.9184 19.7445 30.8104 19.8715 30.6834L24.094 26.4609C24.234 26.3209 24.405 26.2444 24.607 26.2314C24.809 26.2184 24.992 26.2949 25.156 26.4609C25.316 26.6209 25.396 26.7979 25.396 26.9919C25.396 27.1859 25.316 27.3629 25.156 27.5229L20.941 31.7454C20.789 31.8974 20.675 32.0699 20.599 32.2629C20.524 32.4569 20.4865 32.6519 20.4865 32.8479C20.4865 33.1829 20.6045 33.4684 20.8405 33.7044C21.0765 33.9404 21.362 34.0589 21.697 34.0599C21.893 34.0599 22.094 34.0154 22.3 33.9264C22.506 33.8374 22.6725 33.7299 22.7995 33.6039L27.3685 29.0439C27.5085 28.9029 27.679 28.8259 27.88 28.8129C28.081 28.7999 28.264 28.8764 28.429 29.0424C28.589 29.2024 28.669 29.3794 28.669 29.5734C28.669 29.7674 28.589 29.9444 28.429 30.1044L23.869 34.6734C23.737 34.8004 23.628 34.9669 23.542 35.1729C23.456 35.3789 23.413 35.5799 23.413 35.7759C23.413 36.1099 23.5315 36.3949 23.7685 36.6309C24.0055 36.8689 24.291 36.9879 24.625 36.9879C24.821 36.9879 25.016 36.9499 25.21 36.8739C25.404 36.7979 25.576 36.6839 25.726 36.5319L30.2965 31.9719C30.4365 31.8309 30.607 31.7539 30.808 31.7409C31.009 31.7289 31.1925 31.8054 31.3585 31.9704C31.5175 32.1304 31.597 32.3074 31.597 32.5014C31.597 32.6954 31.517 32.8724 31.357 33.0324L26.7895 37.5999C26.6385 37.7519 26.525 37.9344 26.449 38.1474C26.373 38.3604 26.335 38.5549 26.335 38.7309C26.335 39.0849 26.4595 39.3704 26.7085 39.5874C26.9575 39.8044 27.2395 39.9129 27.5545 39.9129M27.5455 41.4129C26.7745 41.4129 26.1145 41.1309 25.5655 40.5669C25.0165 40.0029 24.7755 39.3059 24.8425 38.4759C23.9925 38.4859 23.285 38.2324 22.72 37.7154C22.155 37.1984 21.8865 36.4764 21.9145 35.5494C20.9885 35.5594 20.2585 35.2944 19.7245 34.7544C19.1905 34.2144 18.9475 33.5034 18.9955 32.6214C18.1615 32.6314 17.4635 32.3964 16.9015 31.9164C16.3405 31.4384 16.06 30.7724 16.06 29.9184C16.06 29.5334 16.1345 29.1484 16.2835 28.7634C16.4325 28.3774 16.6525 28.0384 16.9435 27.7464L22.786 21.9039C23.246 21.4449 23.813 21.2154 24.487 21.2154C25.161 21.2154 25.728 21.4454 26.188 21.9054L28.3645 24.0819C28.4915 24.2149 28.6485 24.3244 28.8355 24.4104C29.0225 24.4964 29.233 24.5389 29.467 24.5379C29.788 24.5379 30.0715 24.4259 30.3175 24.2019C30.5635 23.9779 30.687 23.6859 30.688 23.3259C30.688 23.0919 30.645 22.8819 30.559 22.6959C30.473 22.5089 30.364 22.3519 30.232 22.2249L25.072 17.0649C24.7 16.6879 24.3135 16.4114 23.9125 16.2354C23.5115 16.0594 23.0725 15.9714 22.5955 15.9714C22.1245 15.9714 21.6965 16.0594 21.3115 16.2354C20.9275 16.4114 20.547 16.6879 20.17 17.0649L15.6025 21.6399C15.0785 22.1629 14.7415 22.8014 14.5915 23.5554C14.4415 24.3094 14.51 25.0294 14.797 25.7154C14.853 25.9094 14.828 26.0969 14.722 26.2779C14.616 26.4589 14.466 26.5739 14.272 26.6229C14.078 26.6719 13.8855 26.6459 13.6945 26.5449C13.5035 26.4439 13.3835 26.2954 13.3345 26.0994C13.0115 25.1294 12.941 24.1499 13.123 23.1609C13.305 22.1719 13.775 21.2984 14.533 20.5404L19.069 16.0029C19.592 15.4849 20.1455 15.0999 20.7295 14.8479C21.3135 14.5969 21.945 14.4714 22.624 14.4714C23.303 14.4714 23.929 14.5974 24.502 14.8494C25.076 15.1004 25.622 15.4849 26.14 16.0029L27.445 17.3094L28.753 16.0029C29.276 15.4849 29.8245 15.0999 30.3985 14.8479C30.9725 14.5969 31.599 14.4714 32.278 14.4714C32.957 14.4714 33.5885 14.5974 34.1725 14.8494C34.7555 15.1004 35.3055 15.4849 35.8225 16.0029L41.4115 21.5904C41.9285 22.1074 42.3275 22.6879 42.6085 23.3319C42.8895 23.9759 43.0295 24.6374 43.0285 25.3164C43.0285 25.9964 42.8885 26.6229 42.6085 27.1959C42.3285 27.7689 41.9295 28.3149 41.4115 28.8339L29.716 40.5189C29.405 40.8309 29.066 41.0579 28.699 41.1999C28.333 41.3419 27.9495 41.4129 27.5455 41.4129Z" fill="#3B82F6"/>
</g>
<defs>
<clipPath id="clip0_321_1195">
<rect width="36" height="36" fill="white" transform="translate(10 10)"/>
</clipPath>
</defs>
</svg>
