<svg width="56" height="56" viewBox="0 0 56 56" fill="none" xmlns="http://www.w3.org/2000/svg">
<rect width="56" height="56" rx="8" fill="#1E3A8A" fill-opacity="0.03"/>
<g clip-path="url(#clip0_1087_171)">
<path d="M32.5 43L32.0845 43.624C32.1974 43.6991 32.3286 43.7422 32.4641 43.7487C32.5996 43.7552 32.7344 43.7248 32.854 43.6608C32.9736 43.5968 33.0736 43.5015 33.1433 43.3851C33.213 43.2687 33.2499 43.1356 33.25 43H32.5ZM28 40L28.4155 39.376C28.2924 39.2941 28.1478 39.2504 28 39.2504C27.8521 39.2504 27.7076 39.2941 27.5845 39.376L28 40ZM23.5 43H22.75C22.75 43.1356 22.7869 43.2687 22.8566 43.3851C22.9264 43.5015 23.0264 43.5968 23.146 43.6608C23.2656 43.7248 23.4003 43.7552 23.5358 43.7487C23.6713 43.7422 23.8025 43.6991 23.9155 43.624L23.5 43ZM32.9155 42.376L28.4155 39.376L27.5845 40.624L32.0845 43.624L32.9155 42.376ZM27.5845 39.376L23.0845 42.376L23.9155 43.624L28.4155 40.624L27.5845 39.376ZM29.7145 14.671L29.7775 14.746L30.919 13.774L30.856 13.699L29.7145 14.671ZM32.9335 16.054L33.031 16.045L32.911 14.551L32.8135 14.5585L32.9335 16.054ZM35.4535 18.469L35.4475 18.5665L36.9415 18.6865L36.949 18.589L35.4535 18.469ZM36.754 21.7225L36.829 21.787L37.801 20.644L37.726 20.581L36.754 21.7225ZM36.829 25.2145L36.754 25.2775L37.726 26.419L37.801 26.356L36.829 25.2145ZM35.4475 28.4335L35.455 28.531L36.949 28.411L36.9415 28.3135L35.4475 28.4335ZM33.0325 30.9535L32.9335 30.946L32.8135 32.4415L32.911 32.449L33.0325 30.9535ZM29.7775 32.254L29.713 32.329L30.856 33.301L30.919 33.226L29.7775 32.254ZM26.287 32.329L26.2225 32.254L25.081 33.226L25.144 33.301L26.287 32.329ZM23.0665 30.9475L22.969 30.955L23.089 32.449L23.1865 32.4415L23.0665 30.9475ZM20.5465 28.5325L20.554 28.4335L19.0585 28.3135L19.051 28.411L20.5465 28.5325ZM19.246 25.2775L19.171 25.213L18.199 26.356L18.274 26.419L19.246 25.2775ZM19.171 21.787L19.246 21.7225L18.274 20.581L18.199 20.644L19.171 21.787ZM20.554 18.5665L20.545 18.469L19.051 18.589L19.0585 18.6865L20.554 18.5665ZM22.969 16.0465L23.0665 16.054L23.1865 14.5585L23.089 14.551L22.969 16.0465ZM26.224 14.746L26.2855 14.671L25.144 13.699L25.081 13.774L26.224 14.746ZM23.0665 16.054C23.6588 16.1017 24.2539 16.008 24.8029 15.7806C25.3519 15.5532 25.8389 15.1986 26.224 14.746L25.081 13.774C24.8499 14.0455 24.5577 14.2582 24.2283 14.3946C23.8989 14.531 23.5418 14.5871 23.1865 14.5585L23.0665 16.054ZM20.545 18.469C20.5188 18.1443 20.5649 17.8177 20.6772 17.5119C20.7896 17.2061 20.967 16.9284 21.1972 16.6979C21.4274 16.4674 21.7049 16.2896 22.0106 16.1769C22.3162 16.0642 22.6427 16.0192 22.9675 16.045L23.089 14.551C22.5477 14.5075 22.0019 14.5822 21.4922 14.7697C20.9826 14.9573 20.5198 15.2533 20.1358 15.6373C19.7518 16.0213 19.4558 16.4841 19.2682 16.9937C19.0807 17.5034 19.0075 18.0477 19.051 18.589L20.545 18.469ZM19.246 21.7225C19.6986 21.3374 20.0532 20.8519 20.2806 20.3029C20.508 19.7539 20.6017 19.1588 20.554 18.5665L19.0585 18.6865C19.0871 19.0418 19.031 19.3989 18.8946 19.7283C18.7582 20.0577 18.5455 20.3499 18.274 20.581L19.246 21.7225ZM19.171 25.213C18.9229 25.0017 18.7237 24.7392 18.5871 24.4434C18.4505 24.1477 18.3798 23.8258 18.3798 23.5C18.3798 23.1742 18.4505 22.8523 18.5871 22.5565C18.7237 22.2608 18.9229 21.9982 19.171 21.787L18.199 20.644C17.7852 20.996 17.4529 21.4337 17.2251 21.9269C16.9972 22.42 16.8792 22.9567 16.8792 23.5C16.8792 24.0432 16.9972 24.58 17.2251 25.0731C17.4529 25.5662 17.7852 26.0039 18.199 26.356L19.171 25.213ZM20.554 28.4335C20.6015 27.8414 20.5076 27.2466 20.2802 26.6979C20.0528 26.1492 19.6983 25.6624 19.246 25.2775L18.274 26.419C18.5455 26.65 18.7582 26.9423 18.8946 27.2717C19.031 27.601 19.0871 27.9581 19.0585 28.3135L20.554 28.4335ZM22.969 30.9535C22.6441 30.9797 22.3174 30.9351 22.0115 30.8226C21.7056 30.7102 21.4278 30.5326 21.1973 30.3023C20.9668 30.0719 20.789 29.7942 20.6764 29.4883C20.5638 29.1825 20.5189 28.8558 20.545 28.531L19.051 28.411C19.0073 28.9524 19.0818 29.4969 19.2692 30.0067C19.4567 30.5165 19.7527 30.9795 20.1367 31.3637C20.5207 31.7478 20.9836 32.044 21.4934 32.2316C22.0031 32.4193 22.5475 32.4939 23.089 32.4505L22.969 30.9535ZM29.713 32.329C29.5017 32.577 29.2392 32.7762 28.9434 32.9128C28.6477 33.0494 28.3258 33.1202 28 33.1202C27.6742 33.1202 27.3523 33.0494 27.0565 32.9128C26.7608 32.7762 26.4982 32.577 26.287 32.329L25.144 33.301C25.496 33.7147 25.9337 34.047 26.4269 34.2749C26.92 34.5028 27.4567 34.6208 28 34.6208C28.5432 34.6208 29.08 34.5028 29.5731 34.2749C30.0662 34.047 30.5039 33.7147 30.856 33.301L29.713 32.329ZM35.455 28.531C35.4812 28.856 35.4366 29.1828 35.3241 29.4888C35.2115 29.7948 35.0338 30.0727 34.8033 30.3033C34.5727 30.5338 34.2948 30.7115 33.9888 30.824C33.6828 30.9366 33.356 30.9812 33.031 30.955L32.911 32.449C33.4524 32.4926 33.9969 32.4182 34.5067 32.2307C35.0165 32.0433 35.4795 31.7473 35.8637 31.3633C36.2478 30.9792 36.544 30.5163 36.7316 30.0066C36.9193 29.4968 36.9924 28.9524 36.949 28.411L35.455 28.531ZM36.754 25.276C36.3017 25.6612 35.9473 26.1483 35.7202 26.6973C35.493 27.2462 35.3996 27.8413 35.4475 28.4335L36.9415 28.3135C36.9128 27.9581 36.969 27.601 37.1054 27.2717C37.2418 26.9423 37.4545 26.65 37.726 26.419L36.754 25.276ZM36.829 21.787C37.077 21.9982 37.2762 22.2608 37.4128 22.5565C37.5494 22.8523 37.6202 23.1742 37.6202 23.5C37.6202 23.8258 37.5494 24.1477 37.4128 24.4434C37.2762 24.7392 37.077 25.0032 36.829 25.2145L37.801 26.356C38.2147 26.0039 38.547 25.5662 38.7749 25.0731C39.0028 24.58 39.1208 24.0432 39.1208 23.5C39.1208 22.9567 39.0028 22.42 38.7749 21.9269C38.547 21.4337 38.2147 20.996 37.801 20.644L36.829 21.787ZM35.4475 18.5665C35.3998 19.1584 35.4934 19.7532 35.7205 20.3019C35.9477 20.8505 36.3019 21.3374 36.754 21.7225L37.726 20.581C37.4545 20.3499 37.2418 20.0577 37.1054 19.7283C36.969 19.3989 36.9128 19.0418 36.9415 18.6865L35.4475 18.5665ZM33.0325 16.0465C33.3572 16.0205 33.6837 16.0653 33.9894 16.1778C34.2952 16.2904 34.5728 16.4679 34.8032 16.6983C35.0335 16.9287 35.2111 17.2063 35.3236 17.512C35.4362 17.8177 35.4795 18.1442 35.4535 18.469L36.949 18.589C36.9924 18.0475 36.9193 17.5031 36.7316 16.9934C36.544 16.4836 36.2478 16.0207 35.8637 15.6367C35.4795 15.2527 35.0165 14.9567 34.5067 14.7692C33.9969 14.5818 33.4524 14.5073 32.911 14.551L33.0325 16.0465ZM29.7775 14.746C30.1624 15.1983 30.6492 15.5528 31.1979 15.7802C31.7466 16.0076 32.3414 16.1015 32.9335 16.054L32.8135 14.5585C32.4581 14.5871 32.101 14.531 31.7717 14.3946C31.4423 14.2582 31.15 14.0455 30.919 13.774L29.7775 14.746ZM30.856 13.699C30.5039 13.2852 30.0662 12.9529 29.5731 12.7251C29.08 12.4972 28.5432 12.3792 28 12.3792C27.4567 12.3792 26.92 12.4972 26.4269 12.7251C25.9337 12.9529 25.496 13.2852 25.144 13.699L26.2855 14.671C26.4967 14.4229 26.7608 14.2237 27.0565 14.0871C27.3523 13.9505 27.6742 13.8798 28 13.8798C28.3258 13.8798 28.6477 13.9505 28.9434 14.0871C29.2392 14.2237 29.5032 14.4229 29.7145 14.671L30.856 13.699ZM26.224 32.254C25.8899 31.8616 25.4785 31.5422 25.0155 31.3159C24.5525 31.0895 24.0478 30.9596 23.533 30.937L23.467 32.437C23.7758 32.4506 24.0784 32.5276 24.3561 32.6634C24.6338 32.7991 24.8806 32.9907 25.081 33.226L26.224 32.254ZM23.533 30.937C23.3774 30.9314 23.2217 30.9354 23.0665 30.946L23.1865 32.4415C23.2805 32.4335 23.374 32.432 23.467 32.437L23.533 30.937ZM24.25 43V31.687H22.75V43H24.25ZM32.935 30.946C32.7792 30.9354 32.623 30.9329 32.467 30.9385L32.533 32.437C32.626 32.432 32.7195 32.4335 32.8135 32.4415L32.935 30.946ZM32.467 30.9385C31.9524 30.9613 31.448 31.0898 30.9852 31.3162C30.5225 31.5425 30.1114 31.8617 29.7775 32.254L30.919 33.226C31.1194 32.9907 31.3661 32.7991 31.6438 32.6634C31.9215 32.5276 32.2242 32.4506 32.533 32.437L32.467 30.9385ZM31.75 31.6885V43H33.25V31.687L31.75 31.6885Z" fill="#3B82F6"/>
<path d="M31 22L26.5 26.5L25 25" stroke="#3B82F6" stroke-width="1.5" stroke-linecap="round" stroke-linejoin="round"/>
</g>
<defs>
<clipPath id="clip0_1087_171">
<rect width="36" height="36" fill="white" transform="translate(10 10)"/>
</clipPath>
</defs>
</svg>
