<svg width="36" height="36" viewBox="0 0 36 36" fill="none" xmlns="http://www.w3.org/2000/svg">
<rect width="36" height="36" rx="6" fill="url(#paint0_linear_1306_2792)"/>
<path d="M22.5479 8.29004C22.7745 8.29516 22.9864 8.3361 23.0977 8.58301C23.2536 8.92772 22.9649 9.13569 22.7627 9.33789C20.9407 11.1733 19.1053 12.9958 17.293 14.8408C16.8698 15.2716 16.3509 15.6276 16.0811 16.2002C18.0712 18.2019 20.0597 20.2033 22.0518 22.2031C23.5598 23.7189 25.0721 25.2313 26.584 26.7412C26.7842 26.9415 27.0228 27.146 26.9092 27.4541C26.784 27.7963 26.4415 27.6964 26.1797 27.6963C22.6668 27.7021 19.1516 27.6944 15.6387 27.7002C15.0878 27.7002 14.6468 27.5382 14.2539 27.1279C12.7921 25.5949 11.3072 24.0869 9.83008 22.5693V22.5664C9.47552 22.2639 9.10596 21.9731 9.08105 21.4482C9.17891 21.3674 9.18063 21.256 9.17871 21.1426C9.17102 18.8578 9.16589 16.5709 9.1582 14.2861C9.28403 14.2401 9.27929 14.1463 9.24023 14.04C9.46353 14.0324 9.51512 13.9051 9.47266 13.7129C9.59762 13.7143 9.61467 13.6233 9.62598 13.5273C11.2149 11.8055 12.9236 10.2011 14.5664 8.53125C14.811 8.28299 15.1345 8.29004 15.4541 8.29004H22.5479ZM9.46387 13.709C9.46653 13.7091 9.46911 13.709 9.47168 13.709C9.47198 13.7103 9.47237 13.7116 9.47266 13.7129H9.4707C9.51253 13.9059 9.46266 14.0305 9.23828 14.0381V14.04H9.24023L9.25 14.0781C9.27555 14.1686 9.26815 14.2438 9.1582 14.2842V14.2861C9.15724 14.2865 9.15625 14.2868 9.15527 14.2871C9.16296 16.5716 9.16907 18.8581 9.17676 21.1426C9.17676 21.2541 9.17684 21.3674 9.0791 21.4482C9.07332 19.1605 9.06733 16.8708 9.06348 14.583C9.06348 14.477 9.0511 14.3657 9.14551 14.2871C9.28286 14.2429 9.27463 14.1519 9.23535 14.042V14.041L9.23633 14.04L9.2373 14.0381C9.46453 14.0308 9.50781 13.9052 9.46387 13.709Z" fill="url(#paint1_linear_1306_2792)"/>
<defs>
<linearGradient id="paint0_linear_1306_2792" x1="-2.5" y1="-2.5" x2="36" y2="36" gradientUnits="userSpaceOnUse">
<stop stop-color="#83B9FB"/>
<stop offset="0.60898" stop-color="#3B82F6"/>
</linearGradient>
<linearGradient id="paint1_linear_1306_2792" x1="9.0625" y1="18" x2="26.939" y2="18" gradientUnits="userSpaceOnUse">
<stop stop-color="#EFF6FF"/>
<stop offset="1" stop-color="#BFDBFE"/>
</linearGradient>
</defs>
</svg>
