<svg width="17" height="18" viewBox="0 0 17 18" fill="none" xmlns="http://www.w3.org/2000/svg">
<path d="M9.65325 15.8687H9.86204C9.86204 16.0135 9.82056 16.1222 9.7376 16.1951C9.65555 16.267 9.54356 16.3029 9.4016 16.3029C9.30296 16.3029 9.2177 16.2803 9.1458 16.2352C9.0739 16.19 9.01813 16.1273 8.97849 16.0471C8.93977 15.9669 8.92042 15.8738 8.92042 15.7678V15.606C8.92042 15.5 8.93977 15.4069 8.97849 15.3267C9.01813 15.2465 9.0739 15.1838 9.1458 15.1387C9.2177 15.0935 9.30296 15.0709 9.4016 15.0709C9.54356 15.0709 9.65602 15.1069 9.73898 15.1788C9.82194 15.2507 9.86342 15.359 9.86342 15.5037H9.65463C9.65463 15.4143 9.63297 15.3502 9.58965 15.3115C9.54724 15.2728 9.48456 15.2534 9.4016 15.2534C9.34168 15.2534 9.29144 15.2687 9.25088 15.2991C9.21032 15.3286 9.17944 15.3696 9.15824 15.4221C9.13796 15.4747 9.12782 15.5355 9.12782 15.6046V15.7678C9.12782 15.8369 9.13796 15.8982 9.15824 15.9517C9.17944 16.0042 9.21032 16.0457 9.25088 16.0762C9.29144 16.1056 9.34168 16.1204 9.4016 16.1204C9.48456 16.1204 9.54724 16.101 9.58965 16.0623C9.63205 16.0236 9.65325 15.9591 9.65325 15.8687ZM8.60378 15.6862C8.60378 15.8079 8.62452 15.9217 8.666 16.0278C8.7084 16.1328 8.76694 16.225 8.8416 16.3043C8.91719 16.3827 9.0043 16.4439 9.10293 16.4882C9.20157 16.5315 9.30757 16.5532 9.42096 16.5532C9.53342 16.5532 9.63896 16.5315 9.7376 16.4882C9.83623 16.4439 9.92288 16.3827 9.99754 16.3043C10.0722 16.225 10.1307 16.1328 10.1731 16.0278C10.2156 15.9217 10.2368 15.8079 10.2368 15.6862C10.2368 15.5636 10.2156 15.4502 10.1731 15.3461C10.1307 15.241 10.0722 15.1493 9.99754 15.0709C9.92288 14.9926 9.83623 14.9317 9.7376 14.8884C9.63896 14.8442 9.53342 14.822 9.42096 14.822C9.30757 14.822 9.20157 14.8442 9.10293 14.8884C9.0043 14.9317 8.91719 14.9926 8.8416 15.0709C8.76694 15.1493 8.7084 15.241 8.666 15.3461C8.62452 15.4502 8.60378 15.5636 8.60378 15.6862ZM8.43924 15.6862C8.43924 15.5397 8.46459 15.4037 8.51528 15.2783C8.56598 15.153 8.6365 15.0437 8.72684 14.9506C8.81717 14.8566 8.92134 14.7838 9.03933 14.7322C9.15824 14.6796 9.28545 14.6533 9.42096 14.6533C9.55646 14.6533 9.68321 14.6796 9.8012 14.7322C9.92011 14.7838 10.0243 14.8566 10.1137 14.9506C10.204 15.0437 10.2745 15.153 10.3252 15.2783C10.3759 15.4037 10.4013 15.5397 10.4013 15.6862C10.4013 15.8328 10.3759 15.9688 10.3252 16.0941C10.2745 16.2195 10.204 16.3292 10.1137 16.4232C10.0243 16.5172 9.92011 16.5905 9.8012 16.6431C9.68321 16.6956 9.55646 16.7219 9.42096 16.7219C9.28545 16.7219 9.15824 16.6956 9.03933 16.6431C8.92134 16.5905 8.81717 16.5172 8.72684 16.4232C8.6365 16.3292 8.56598 16.2195 8.51528 16.0941C8.46459 15.9688 8.43924 15.8328 8.43924 15.6862Z" fill="#71717A"/>
<path d="M16.7445 9.81119V4.01656L12.7258 0.000488281L4.0161 0.000488281V4.01656H12.7367V9.75381H8.77802L6.54048 13.7699L12.7367 13.7699L16.7445 9.81119Z" fill="#71717A"/>
<path d="M4.0161 4.01656H1.2264e-05V17.786L6.54048 17.786V13.7699H4.0161V4.01656Z" fill="#71717A"/>
</svg>
