<svg width="36" height="36" viewBox="0 0 36 36" fill="none" xmlns="http://www.w3.org/2000/svg">
<rect width="36" height="36" rx="6" fill="url(#paint0_linear_902_1051)"/>
<g clip-path="url(#clip0_902_1051)">
<path d="M11.25 22.5C11.8467 22.5 12.419 22.7371 12.841 23.159C13.2629 23.581 13.5 24.1533 13.5 24.75C13.5 25.3467 13.2629 25.919 12.841 26.341C12.419 26.7629 11.8467 27 11.25 27C10.6533 27 10.081 26.7629 9.65901 26.341C9.23705 25.919 9 25.3467 9 24.75C9 24.1533 9.23705 23.581 9.65901 23.159C10.081 22.7371 10.6533 22.5 11.25 22.5ZM24.75 22.5C25.3467 22.5 25.919 22.7371 26.341 23.159C26.7629 23.581 27 24.1533 27 24.75C27 25.3467 26.7629 25.919 26.341 26.341C25.919 26.7629 25.3467 27 24.75 27C24.1533 27 23.581 26.7629 23.159 26.341C22.7371 25.919 22.5 25.3467 22.5 24.75C22.5 24.1533 22.7371 23.581 23.159 23.159C23.581 22.7371 24.1533 22.5 24.75 22.5ZM11.25 23.625C10.9516 23.625 10.6655 23.7435 10.4545 23.9545C10.2435 24.1655 10.125 24.4516 10.125 24.75C10.125 25.0484 10.2435 25.3345 10.4545 25.5455C10.6655 25.7565 10.9516 25.875 11.25 25.875C11.5484 25.875 11.8345 25.7565 12.0455 25.5455C12.2565 25.3345 12.375 25.0484 12.375 24.75C12.375 24.4516 12.2565 24.1655 12.0455 23.9545C11.8345 23.7435 11.5484 23.625 11.25 23.625ZM24.75 23.625C24.4516 23.625 24.1655 23.7435 23.9545 23.9545C23.7435 24.1655 23.625 24.4516 23.625 24.75C23.625 25.0484 23.7435 25.3345 23.9545 25.5455C24.1655 25.7565 24.4516 25.875 24.75 25.875C25.0484 25.875 25.3345 25.7565 25.5455 25.5455C25.7565 25.3345 25.875 25.0484 25.875 24.75C25.875 24.4516 25.7565 24.1655 25.5455 23.9545C25.3345 23.7435 25.0484 23.625 24.75 23.625ZM18.5625 14.0625V17.4375H21.9375V18.5625H18.5625V21.9375H17.4375V18.5625H14.0625V17.4375H17.4375V14.0625H18.5625ZM11.25 9C11.8467 9 12.419 9.23705 12.841 9.65901C13.2629 10.081 13.5 10.6533 13.5 11.25C13.5 11.8467 13.2629 12.419 12.841 12.841C12.419 13.2629 11.8467 13.5 11.25 13.5C10.6533 13.5 10.081 13.2629 9.65901 12.841C9.23705 12.419 9 11.8467 9 11.25C9 10.6533 9.23705 10.081 9.65901 9.65901C10.081 9.23705 10.6533 9 11.25 9ZM24.75 9C25.3467 9 25.919 9.23705 26.341 9.65901C26.7629 10.081 27 10.6533 27 11.25C27 11.8467 26.7629 12.419 26.341 12.841C25.919 13.2629 25.3467 13.5 24.75 13.5C24.1533 13.5 23.581 13.2629 23.159 12.841C22.7371 12.419 22.5 11.8467 22.5 11.25C22.5 10.6533 22.7371 10.081 23.159 9.65901C23.581 9.23705 24.1533 9 24.75 9ZM24.75 10.125C24.4516 10.125 24.1655 10.2435 23.9545 10.4545C23.7435 10.6655 23.625 10.9516 23.625 11.25C23.625 11.5484 23.7435 11.8345 23.9545 12.0455C24.1655 12.2565 24.4516 12.375 24.75 12.375C25.0484 12.375 25.3345 12.2565 25.5455 12.0455C25.7565 11.8345 25.875 11.5484 25.875 11.25C25.875 10.9516 25.7565 10.6655 25.5455 10.4545C25.3345 10.2435 25.0484 10.125 24.75 10.125ZM11.25 10.125C10.9516 10.125 10.6655 10.2435 10.4545 10.4545C10.2435 10.6655 10.125 10.9516 10.125 11.25C10.125 11.5484 10.2435 11.8345 10.4545 12.0455C10.6655 12.2565 10.9516 12.375 11.25 12.375C11.5484 12.375 11.8345 12.2565 12.0455 12.0455C12.2565 11.8345 12.375 11.5484 12.375 11.25C12.375 10.9516 12.2565 10.6655 12.0455 10.4545C11.8345 10.2435 11.5484 10.125 11.25 10.125Z" fill="url(#paint1_linear_902_1051)"/>
<path d="M20.8564 25.3406C20.9138 25.7214 21.0251 26.0843 21.1838 26.4206C20.1662 26.8045 19.0875 27.0008 18 27C16.8789 27 15.8063 26.7953 14.8163 26.4206C14.9743 26.0843 15.0863 25.7214 15.1436 25.3406C16.029 25.686 16.9926 25.875 18 25.875C19.0074 25.875 19.971 25.686 20.8564 25.3406ZM26.4206 14.8163C26.8045 15.8338 27.0008 16.9125 27 18C27 19.1211 26.7953 20.1938 26.4206 21.1838C26.0782 21.0233 25.7145 20.9131 25.3406 20.8564C25.686 19.971 25.875 19.0074 25.875 18C25.875 16.9926 25.686 16.029 25.3406 15.1436C25.7145 15.0869 26.0782 14.9767 26.4206 14.8163ZM9.57938 14.8163C9.91575 14.9743 10.2786 15.0863 10.6594 15.1436C10.3056 16.0544 10.1244 17.023 10.125 18C10.125 19.0074 10.314 19.971 10.6594 20.8564C10.2855 20.9131 9.92179 21.0233 9.57938 21.1838C9.19548 20.1662 8.99918 19.0875 9 18C9 16.8789 9.20475 15.8063 9.57938 14.8163ZM18 9C19.1211 9 20.1938 9.20475 21.1838 9.57938C21.0233 9.92179 20.9131 10.2855 20.8564 10.6594C19.9456 10.3056 18.977 10.1244 18 10.125C16.9926 10.125 16.029 10.314 15.1436 10.6594C15.0869 10.2855 14.9767 9.92179 14.8163 9.57938C15.8338 9.19548 16.9125 8.99918 18 9Z" fill="url(#paint2_linear_902_1051)"/>
</g>
<defs>
<linearGradient id="paint0_linear_902_1051" x1="-2.5" y1="-2.5" x2="36" y2="36" gradientUnits="userSpaceOnUse">
<stop stop-color="#83B9FB"/>
<stop offset="0.60898" stop-color="#3B82F6"/>
</linearGradient>
<linearGradient id="paint1_linear_902_1051" x1="9" y1="18" x2="27" y2="18" gradientUnits="userSpaceOnUse">
<stop stop-color="#EFF6FF"/>
<stop offset="1" stop-color="#BFDBFE"/>
</linearGradient>
<linearGradient id="paint2_linear_902_1051" x1="9" y1="18" x2="27" y2="18" gradientUnits="userSpaceOnUse">
<stop stop-color="#EFF6FF"/>
<stop offset="1" stop-color="#BFDBFE"/>
</linearGradient>
<clipPath id="clip0_902_1051">
<rect width="18" height="18" fill="white" transform="translate(9 9)"/>
</clipPath>
</defs>
</svg>
